<svg xmlns="http://www.w3.org/2000/svg" viewBox="0 0 1000 900">
  <defs>
    <linearGradient id="bg" x1="0" y1="0" x2="0" y2="1">
      <stop offset="0%" stop-color="#0a0e17"/>
      <stop offset="100%" stop-color="#111827"/>
    </linearGradient>
    <radialGradient id="vaultGlow" cx="50%" cy="50%" r="50%">
      <stop offset="0%" stop-color="#10b981" stop-opacity="0.15"/>
      <stop offset="100%" stop-color="#10b981" stop-opacity="0"/>
    </radialGradient>
    <radialGradient id="aigentGlow" cx="50%" cy="50%" r="50%">
      <stop offset="0%" stop-color="#6366f1" stop-opacity="0.18"/>
      <stop offset="100%" stop-color="#6366f1" stop-opacity="0"/>
    </radialGradient>
    <filter id="dotGlow" x="-100%" y="-100%" width="300%" height="300%">
      <feGaussianBlur stdDeviation="2" result="blur"/>
      <feComposite in="SourceGraphic" in2="blur" operator="over"/>
    </filter>
    <path id="p-you-aigent"       d="M 500 112 L 500 175"/>
    <path id="p-aigent-pantheon"  d="M 370 243 L 240 243 L 240 305"/>
    <path id="p-aigent-selflearn" d="M 630 243 L 760 243 L 760 305"/>
    <path id="p-pantheon-vault"  d="M 240 445 L 240 520 L 380 520 L 380 540"/>
    <path id="p-selflearn-vault" d="M 760 445 L 760 520 L 620 520 L 620 540"/>
    <path id="p-vault-caddy"     d="M 500 598 L 500 648"/>
    <path id="p-caddy-somatic"   d="M 500 706 L 500 750"/>
  </defs>

  <rect width="1000" height="900" fill="url(#bg)"/>

  <g fill="#10b981" opacity="0.05">
    <circle cx="50"  cy="50"  r="1.5"/><circle cx="150" cy="50"  r="1.5"/><circle cx="250" cy="50"  r="1.5"/>
    <circle cx="350" cy="50"  r="1.5"/><circle cx="450" cy="50"  r="1.5"/><circle cx="550" cy="50"  r="1.5"/>
    <circle cx="650" cy="50"  r="1.5"/><circle cx="750" cy="50"  r="1.5"/><circle cx="850" cy="50"  r="1.5"/>
    <circle cx="950" cy="50"  r="1.5"/>
    <circle cx="50"  cy="150" r="1.5"/><circle cx="150" cy="150" r="1.5"/><circle cx="250" cy="150" r="1.5"/>
    <circle cx="350" cy="150" r="1.5"/><circle cx="450" cy="150" r="1.5"/><circle cx="550" cy="150" r="1.5"/>
    <circle cx="650" cy="150" r="1.5"/><circle cx="750" cy="150" r="1.5"/><circle cx="850" cy="150" r="1.5"/>
    <circle cx="950" cy="150" r="1.5"/>
    <circle cx="50"  cy="250" r="1.5"/><circle cx="150" cy="250" r="1.5"/><circle cx="250" cy="250" r="1.5"/>
    <circle cx="350" cy="250" r="1.5"/><circle cx="450" cy="250" r="1.5"/><circle cx="550" cy="250" r="1.5"/>
    <circle cx="650" cy="250" r="1.5"/><circle cx="750" cy="250" r="1.5"/><circle cx="850" cy="250" r="1.5"/>
    <circle cx="950" cy="250" r="1.5"/>
    <circle cx="50"  cy="350" r="1.5"/><circle cx="150" cy="350" r="1.5"/><circle cx="250" cy="350" r="1.5"/>
    <circle cx="350" cy="350" r="1.5"/><circle cx="450" cy="350" r="1.5"/><circle cx="550" cy="350" r="1.5"/>
    <circle cx="650" cy="350" r="1.5"/><circle cx="750" cy="350" r="1.5"/><circle cx="850" cy="350" r="1.5"/>
    <circle cx="950" cy="350" r="1.5"/>
    <circle cx="50"  cy="450" r="1.5"/><circle cx="150" cy="450" r="1.5"/><circle cx="250" cy="450" r="1.5"/>
    <circle cx="350" cy="450" r="1.5"/><circle cx="450" cy="450" r="1.5"/><circle cx="550" cy="450" r="1.5"/>
    <circle cx="650" cy="450" r="1.5"/><circle cx="750" cy="450" r="1.5"/><circle cx="850" cy="450" r="1.5"/>
    <circle cx="950" cy="450" r="1.5"/>
    <circle cx="50"  cy="550" r="1.5"/><circle cx="150" cy="550" r="1.5"/><circle cx="250" cy="550" r="1.5"/>
    <circle cx="350" cy="550" r="1.5"/><circle cx="450" cy="550" r="1.5"/><circle cx="550" cy="550" r="1.5"/>
    <circle cx="650" cy="550" r="1.5"/><circle cx="750" cy="550" r="1.5"/><circle cx="850" cy="550" r="1.5"/>
    <circle cx="950" cy="550" r="1.5"/>
    <circle cx="50"  cy="650" r="1.5"/><circle cx="150" cy="650" r="1.5"/><circle cx="250" cy="650" r="1.5"/>
    <circle cx="350" cy="650" r="1.5"/><circle cx="450" cy="650" r="1.5"/><circle cx="550" cy="650" r="1.5"/>
    <circle cx="650" cy="650" r="1.5"/><circle cx="750" cy="650" r="1.5"/><circle cx="850" cy="650" r="1.5"/>
    <circle cx="950" cy="650" r="1.5"/>
    <circle cx="50"  cy="750" r="1.5"/><circle cx="150" cy="750" r="1.5"/><circle cx="250" cy="750" r="1.5"/>
    <circle cx="350" cy="750" r="1.5"/><circle cx="450" cy="750" r="1.5"/><circle cx="550" cy="750" r="1.5"/>
    <circle cx="650" cy="750" r="1.5"/><circle cx="750" cy="750" r="1.5"/><circle cx="850" cy="750" r="1.5"/>
    <circle cx="950" cy="750" r="1.5"/>
    <circle cx="50"  cy="850" r="1.5"/><circle cx="150" cy="850" r="1.5"/><circle cx="250" cy="850" r="1.5"/>
    <circle cx="350" cy="850" r="1.5"/><circle cx="450" cy="850" r="1.5"/><circle cx="550" cy="850" r="1.5"/>
    <circle cx="650" cy="850" r="1.5"/><circle cx="750" cy="850" r="1.5"/><circle cx="850" cy="850" r="1.5"/>
    <circle cx="950" cy="850" r="1.5"/>
    <animate attributeName="opacity" values="0.05;0.1;0.05" dur="6s" repeatCount="indefinite"/>
  </g>

  <!-- YOU → AIGENT -->
  <line x1="500" y1="112" x2="500" y2="175"
        stroke="#6366f1" stroke-width="2" stroke-dasharray="5 4" opacity="0.5"/>
  <text x="512" y="148" font-family="monospace" font-size="16" fill="#6366f1" opacity="0.7">directs</text>

  <!-- AIGENT → PANTHEON (left branch) -->
  <path d="M 370 243 L 240 243 L 240 305"
        fill="none" stroke="#10b981" stroke-width="2" stroke-dasharray="5 4" opacity="0.5"/>
  <text x="200" y="238" font-family="monospace" font-size="16" fill="#10b981" opacity="0.7">delegates</text>

  <!-- AIGENT → SELF-LEARNING (right branch) -->
  <path d="M 630 243 L 760 243 L 760 305"
        fill="none" stroke="#f59e0b" stroke-width="2" stroke-dasharray="5 4" opacity="0.5"/>
  <text x="680" y="238" font-family="monospace" font-size="16" fill="#f59e0b" opacity="0.7">monitors</text>

  <!-- PANTHEON → VAULT -->
  <path d="M 240 445 L 240 520 L 380 520 L 380 540"
        fill="none" stroke="#10b981" stroke-width="2" stroke-dasharray="5 4" opacity="0.45"/>
  <text x="248" y="488" font-family="monospace" font-size="16" fill="#10b981" opacity="0.7">writes</text>

  <!-- SELF-LEARNING → VAULT -->
  <path d="M 760 445 L 760 520 L 620 520 L 620 540"
        fill="none" stroke="#f59e0b" stroke-width="2" stroke-dasharray="5 4" opacity="0.45"/>
  <text x="672" y="488" font-family="monospace" font-size="16" fill="#f59e0b" opacity="0.7">feeds</text>

  <!-- VAULT → CADDY -->
  <line x1="500" y1="598" x2="500" y2="648"
        stroke="#6366f1" stroke-width="2" stroke-dasharray="5 4" opacity="0.5"/>
  <text x="512" y="628" font-family="monospace" font-size="16" fill="#6366f1" opacity="0.7">triggers</text>

  <!-- CADDY → SOMATIC -->
  <line x1="500" y1="706" x2="500" y2="750"
        stroke="#10b981" stroke-width="2" stroke-dasharray="5 4" opacity="0.45"/>
  <text x="512" y="733" font-family="monospace" font-size="16" fill="#10b981" opacity="0.7">reads</text>

  <!-- Flow dots: YOU → AIGENT -->
  <circle r="4" fill="#6366f1" filter="url(#dotGlow)">
    <animateMotion dur="2.2s" repeatCount="indefinite" begin="0s"><mpath href="#p-you-aigent"/></animateMotion>
    <animate attributeName="opacity" values="0;1;1;0" keyTimes="0;0.1;0.9;1" dur="2.2s" repeatCount="indefinite" begin="0s"/>
  </circle>
  <circle r="4" fill="#6366f1" filter="url(#dotGlow)">
    <animateMotion dur="2.2s" repeatCount="indefinite" begin="1.1s"><mpath href="#p-you-aigent"/></animateMotion>
    <animate attributeName="opacity" values="0;1;1;0" keyTimes="0;0.1;0.9;1" dur="2.2s" repeatCount="indefinite" begin="1.1s"/>
  </circle>

  <!-- Flow dots: AIGENT → PANTHEON -->
  <circle r="4" fill="#10b981" filter="url(#dotGlow)">
    <animateMotion dur="2.8s" repeatCount="indefinite" begin="0s"><mpath href="#p-aigent-pantheon"/></animateMotion>
    <animate attributeName="opacity" values="0;1;1;0" keyTimes="0;0.1;0.9;1" dur="2.8s" repeatCount="indefinite" begin="0s"/>
  </circle>
  <circle r="4" fill="#10b981" filter="url(#dotGlow)">
    <animateMotion dur="2.8s" repeatCount="indefinite" begin="1.4s"><mpath href="#p-aigent-pantheon"/></animateMotion>
    <animate attributeName="opacity" values="0;1;1;0" keyTimes="0;0.1;0.9;1" dur="2.8s" repeatCount="indefinite" begin="1.4s"/>
  </circle>

  <!-- Flow dots: AIGENT → SELF-LEARNING -->
  <circle r="4" fill="#f59e0b" filter="url(#dotGlow)">
    <animateMotion dur="3.0s" repeatCount="indefinite" begin="0.4s"><mpath href="#p-aigent-selflearn"/></animateMotion>
    <animate attributeName="opacity" values="0;1;1;0" keyTimes="0;0.1;0.9;1" dur="3.0s" repeatCount="indefinite" begin="0.4s"/>
  </circle>
  <circle r="4" fill="#f59e0b" filter="url(#dotGlow)">
    <animateMotion dur="3.0s" repeatCount="indefinite" begin="1.9s"><mpath href="#p-aigent-selflearn"/></animateMotion>
    <animate attributeName="opacity" values="0;1;1;0" keyTimes="0;0.1;0.9;1" dur="3.0s" repeatCount="indefinite" begin="1.9s"/>
  </circle>

  <!-- Flow dots: PANTHEON → VAULT -->
  <circle r="4" fill="#10b981" filter="url(#dotGlow)">
    <animateMotion dur="3.4s" repeatCount="indefinite" begin="0s"><mpath href="#p-pantheon-vault"/></animateMotion>
    <animate attributeName="opacity" values="0;1;1;0" keyTimes="0;0.1;0.9;1" dur="3.4s" repeatCount="indefinite" begin="0s"/>
  </circle>
  <circle r="4" fill="#10b981" filter="url(#dotGlow)">
    <animateMotion dur="3.4s" repeatCount="indefinite" begin="1.7s"><mpath href="#p-pantheon-vault"/></animateMotion>
    <animate attributeName="opacity" values="0;1;1;0" keyTimes="0;0.1;0.9;1" dur="3.4s" repeatCount="indefinite" begin="1.7s"/>
  </circle>

  <!-- Flow dots: SELF-LEARNING → VAULT -->
  <circle r="4" fill="#f59e0b" filter="url(#dotGlow)">
    <animateMotion dur="3.2s" repeatCount="indefinite" begin="0.6s"><mpath href="#p-selflearn-vault"/></animateMotion>
    <animate attributeName="opacity" values="0;1;1;0" keyTimes="0;0.1;0.9;1" dur="3.2s" repeatCount="indefinite" begin="0.6s"/>
  </circle>
  <circle r="4" fill="#f59e0b" filter="url(#dotGlow)">
    <animateMotion dur="3.2s" repeatCount="indefinite" begin="2.2s"><mpath href="#p-selflearn-vault"/></animateMotion>
    <animate attributeName="opacity" values="0;1;1;0" keyTimes="0;0.1;0.9;1" dur="3.2s" repeatCount="indefinite" begin="2.2s"/>
  </circle>

  <!-- Flow dots: VAULT → CADDY -->
  <circle r="4" fill="#6366f1" filter="url(#dotGlow)">
    <animateMotion dur="2.5s" repeatCount="indefinite" begin="0.3s"><mpath href="#p-vault-caddy"/></animateMotion>
    <animate attributeName="opacity" values="0;1;1;0" keyTimes="0;0.1;0.9;1" dur="2.5s" repeatCount="indefinite" begin="0.3s"/>
  </circle>
  <circle r="4" fill="#6366f1" filter="url(#dotGlow)">
    <animateMotion dur="2.5s" repeatCount="indefinite" begin="1.55s"><mpath href="#p-vault-caddy"/></animateMotion>
    <animate attributeName="opacity" values="0;1;1;0" keyTimes="0;0.1;0.9;1" dur="2.5s" repeatCount="indefinite" begin="1.55s"/>
  </circle>

  <!-- Flow dots: CADDY → SOMATIC -->
  <circle r="4" fill="#10b981" filter="url(#dotGlow)">
    <animateMotion dur="2.7s" repeatCount="indefinite" begin="0.2s"><mpath href="#p-caddy-somatic"/></animateMotion>
    <animate attributeName="opacity" values="0;1;1;0" keyTimes="0;0.1;0.9;1" dur="2.7s" repeatCount="indefinite" begin="0.2s"/>
  </circle>
  <circle r="4" fill="#10b981" filter="url(#dotGlow)">
    <animateMotion dur="2.7s" repeatCount="indefinite" begin="1.6s"><mpath href="#p-caddy-somatic"/></animateMotion>
    <animate attributeName="opacity" values="0;1;1;0" keyTimes="0;0.1;0.9;1" dur="2.7s" repeatCount="indefinite" begin="1.6s"/>
  </circle>

  <!-- NODE: YOU -->
  <circle cx="500" cy="68" r="44" fill="none" stroke="#6366f1" stroke-width="1.5" opacity="0.2">
    <animate attributeName="r" values="40;50;40" dur="3s" repeatCount="indefinite"/>
    <animate attributeName="opacity" values="0.25;0;0.25" dur="3s" repeatCount="indefinite"/>
  </circle>
  <rect x="408" y="28" width="184" height="84" rx="14"
        fill="#0d1220" stroke="#6366f1" stroke-width="2.5"/>
  <rect x="408" y="28" width="184" height="84" rx="14"
        fill="url(#aigentGlow)" opacity="0.5"/>
  <text x="500" y="68" font-family="sans-serif" font-size="22" font-weight="bold"
        fill="#e2e8f0" text-anchor="middle">YOU</text>
  <text x="500" y="94" font-family="monospace" font-size="16"
        fill="#818cf8" text-anchor="middle">principal</text>

  <!-- NODE: AIGENT -->
  <rect x="316" y="175" width="368" height="80" rx="14"
        fill="url(#aigentGlow)" opacity="0.6">
    <animate attributeName="opacity" values="0.4;0.8;0.4" dur="4s" repeatCount="indefinite"/>
  </rect>
  <rect x="320" y="179" width="360" height="72" rx="12"
        fill="#0d1220" stroke="#6366f1" stroke-width="2.5"/>
  <circle cx="346" cy="215" r="5" fill="#6366f1">
    <animate attributeName="opacity" values="0.7;1;0.7" dur="2.5s" repeatCount="indefinite"/>
  </circle>
  <text x="500" y="210" font-family="sans-serif" font-size="22" font-weight="bold"
        fill="#e2e8f0" text-anchor="middle">AIGENT</text>
  <text x="500" y="234" font-family="monospace" font-size="16"
        fill="#818cf8" text-anchor="middle">opus · strategy · routing · synthesis</text>

  <!-- NODE: PANTHEON AGENTS -->
  <rect x="40" y="305" width="400" height="140" rx="12"
        fill="#081410" stroke="#10b981" stroke-width="2"/>
  <rect x="40" y="305" width="400" height="40" rx="12" fill="#0d1f18"/>
  <rect x="40" y="330" width="400" height="15" fill="#0d1f18"/>
  <circle cx="62" cy="325" r="5" fill="#10b981">
    <animate attributeName="opacity" values="0.6;1;0.6" dur="2.2s" repeatCount="indefinite"/>
  </circle>
  <text x="77" y="331" font-family="sans-serif" font-size="22" font-weight="bold"
        fill="#10b981">PANTHEON AGENTS</text>
  <text x="60" y="365" font-family="monospace" font-size="16" fill="#6ee7b7">Echo</text>
  <text x="110" y="365" font-family="monospace" font-size="16" fill="#64748b">haiku · scout</text>
  <text x="60" y="388" font-family="monospace" font-size="16" fill="#6ee7b7">Lyra</text>
  <text x="110" y="388" font-family="monospace" font-size="16" fill="#64748b">sonnet · builder</text>
  <text x="60" y="411" font-family="monospace" font-size="16" fill="#6ee7b7">Newton</text>
  <text x="130" y="411" font-family="monospace" font-size="16" fill="#64748b">research</text>
  <text x="250" y="365" font-family="monospace" font-size="16" fill="#6ee7b7">Iris</text>
  <text x="295" y="365" font-family="monospace" font-size="16" fill="#64748b">design</text>
  <text x="250" y="388" font-family="monospace" font-size="16" fill="#6ee7b7">Mnemosyne</text>
  <text x="385" y="388" font-family="monospace" font-size="16" fill="#64748b">mem</text>
  <text x="250" y="411" font-family="monospace" font-size="16" fill="#6ee7b7">+ 5 more</text>
  <text x="335" y="411" font-family="monospace" font-size="16" fill="#64748b">by spec</text>
  <text x="60" y="433" font-family="monospace" font-size="14" fill="#3d5a4a">Hestia · Vitruvius · Demosthenes · Hypatia</text>

  <!-- NODE: SELF-LEARNING -->
  <rect x="560" y="305" width="400" height="140" rx="12"
        fill="#0e110a" stroke="#f59e0b" stroke-width="2"/>
  <rect x="560" y="305" width="400" height="40" rx="12" fill="#1a1500"/>
  <rect x="560" y="330" width="400" height="15" fill="#1a1500"/>
  <circle cx="582" cy="325" r="5" fill="#f59e0b">
    <animate attributeName="opacity" values="0.5;1;0.5" dur="1.9s" repeatCount="indefinite"/>
  </circle>
  <text x="597" y="331" font-family="sans-serif" font-size="22" font-weight="bold"
        fill="#f59e0b">SELF-LEARNING</text>
  <text x="580" y="365" font-family="monospace" font-size="16" fill="#fbbf24">skill-recall</text>
  <text x="580" y="388" font-family="monospace" font-size="16" fill="#fbbf24">skill-hunt</text>
  <text x="580" y="411" font-family="monospace" font-size="16" fill="#fbbf24">solution-hunt</text>
  <text x="728" y="365" font-family="monospace" font-size="16" fill="#fbbf24">learn-from-failure</text>
  <text x="728" y="388" font-family="monospace" font-size="16" fill="#fbbf24">temporal-facts</text>
  <text x="728" y="411" font-family="monospace" font-size="16" fill="#fbbf24">chain-compaction</text>
  <text x="580" y="433" font-family="monospace" font-size="14" fill="#5a4a1a">taxonomy · github search · provenance · staleness-aware</text>

  <!-- NODE: VAULT -->
  <rect x="150" y="540" width="700" height="58" rx="14"
        fill="url(#vaultGlow)" opacity="0.7">
    <animate attributeName="opacity" values="0.4;0.9;0.4" dur="4.5s" repeatCount="indefinite"/>
  </rect>
  <rect x="154" y="544" width="692" height="50" rx="12"
        fill="#060e0c" stroke="#10b981" stroke-width="2.5"/>
  <circle cx="180" cy="569" r="6" fill="#10b981">
    <animate attributeName="r" values="5;7;5" dur="2.5s" repeatCount="indefinite"/>
    <animate attributeName="opacity" values="0.8;1;0.8" dur="2.5s" repeatCount="indefinite"/>
  </circle>
  <text x="500" y="562" font-family="sans-serif" font-size="22" font-weight="bold"
        fill="#10b981" text-anchor="middle">VAULT</text>
  <text x="500" y="583" font-family="monospace" font-size="16"
        fill="#4a7a64" text-anchor="middle">obsidian · memory/ · concepts/ · agents/ · skills/ · feedback/</text>

  <!-- NODE: CADDY + HOOKS -->
  <rect x="298" y="648" width="404" height="58" rx="12"
        fill="#0c0d1a" stroke="#6366f1" stroke-width="2"/>
  <circle cx="322" cy="677" r="5" fill="#6366f1">
    <animate attributeName="opacity" values="1;1;0.2;1" keyTimes="0;0.8;0.9;1" dur="3.2s" repeatCount="indefinite"/>
  </circle>
  <text x="500" y="671" font-family="sans-serif" font-size="22" font-weight="bold"
        fill="#818cf8" text-anchor="middle">CADDY + HOOKS</text>
  <text x="500" y="692" font-family="monospace" font-size="14"
        fill="#4a4f8a" text-anchor="middle">auto-routing · skill taxonomy · session lifecycle</text>

  <!-- NODE: SOMATIC LAYER -->
  <rect x="148" y="750" width="704" height="112" rx="14"
        fill="#080e0c" stroke="#10b981" stroke-width="2" stroke-dasharray="8 4"/>
  <rect x="148" y="750" width="704" height="112" rx="14"
        fill="#0a1410" opacity="0.5">
    <animate attributeName="opacity" values="0.3;0.6;0.3" dur="5s" repeatCount="indefinite"/>
  </rect>
  <circle cx="172" cy="775" r="5" fill="#10b981" opacity="0.8">
    <animate attributeName="opacity" values="0.6;1;0.6" dur="3.5s" repeatCount="indefinite"/>
  </circle>
  <text x="500" y="778" font-family="sans-serif" font-size="22" font-weight="bold"
        fill="#10b981" text-anchor="middle">SOMATIC LAYER</text>
  <text x="500" y="800" font-family="monospace" font-size="16"
        fill="#3d6656" text-anchor="middle">introspection · self-awareness · fitness tracking</text>
  <text x="195" y="835" font-family="monospace" font-size="16" fill="#6ee7b7">body-check</text>
  <text x="315" y="835" font-family="monospace" font-size="16" fill="#6ee7b7">capsules</text>
  <text x="415" y="835" font-family="monospace" font-size="16" fill="#6ee7b7">digest</text>
  <text x="490" y="835" font-family="monospace" font-size="16" fill="#6ee7b7">system-check</text>
  <text x="628" y="835" font-family="monospace" font-size="16" fill="#6ee7b7">agent-fitness</text>
  <text x="195" y="853" font-family="monospace" font-size="14" fill="#3d5a4a">session state</text>
  <text x="315" y="853" font-family="monospace" font-size="14" fill="#3d5a4a">context mem</text>
  <text x="415" y="853" font-family="monospace" font-size="14" fill="#3d5a4a">summary</text>
  <text x="490" y="853" font-family="monospace" font-size="14" fill="#3d5a4a">health audit</text>
  <text x="628" y="853" font-family="monospace" font-size="14" fill="#3d5a4a">dispatch ledger</text>

  <!-- Version tag -->
  <text x="18" y="890" font-family="monospace" font-size="14"
        fill="#3d5a6e">AIGENT-OS v0.6 · AI OPERATING SYSTEM · PANTHEON ARCHITECTURE</text>
</svg>
